<svg width="20" height="20" viewBox="0 0 20 20" fill="none" xmlns="http://www.w3.org/2000/svg">
<g clip-path="url(#clip0_73_22)">
<path d="M6.4 7L5 8.4L10 13.4L20 3.4L18.6 2L10 10.6L6.4 7Z" fill="#C6DDDB"/>
<path d="M9 17C5.1 17 2 13.9 2 10C2 6.1 5.1 3 9 3C10.2 3 11.4 3.3 12.5 3.9L13.5 2.2C12.1 1.4 10.6 1 9 1C4 1 0 5 0 10C0 15 4 19 9 19C14 19 18 15 18 10H16C16 13.9 12.9 17 9 17Z" fill="#C6DDDB"/>
</g>
<defs>
<clipPath id="clip0_73_22">
<rect width="20" height="20" fill="white"/>
</clipPath>
</defs>
</svg>
