<svg width="20" height="20" viewBox="0 0 20 20" fill="none" xmlns="http://www.w3.org/2000/svg">
<g clip-path="url(#clip0_17_195)">
<path d="M12.9591 10.8301L11.284 12.5108C10.6048 13.1925 9.40961 13.2072 8.71566 12.5108L7.04054 10.8301L1.02429 16.8659C1.24824 16.9695 1.49515 17.0313 1.75765 17.0313H18.242C18.5045 17.0313 18.7514 16.9696 18.9752 16.866L12.9591 10.8301Z" fill="#C6DDDB"/>
<path d="M18.2421 2.96875H1.7577C1.4952 2.96875 1.24828 3.03055 1.02441 3.1341L7.4532 9.58422C7.45363 9.58465 7.45414 9.58473 7.45457 9.58516C7.455 9.58559 7.45508 9.58617 7.45508 9.58617L9.54543 11.6834C9.76746 11.9055 10.2324 11.9055 10.4544 11.6834L12.5443 9.58652C12.5443 9.58652 12.5448 9.58559 12.5453 9.58516C12.5453 9.58516 12.5462 9.58465 12.5466 9.58422L18.9753 3.13406C18.7514 3.03047 18.5046 2.96875 18.2421 2.96875Z" fill="#C6DDDB"/>
<path d="M0.186831 3.95361C0.0709717 4.18791 -0.00012207 4.44799 -0.00012207 4.72658V15.2735C-0.00012207 15.5521 0.0708935 15.8121 0.186792 16.0464L6.21347 10.0002L0.186831 3.95361Z" fill="#C6DDDB"/>
<path d="M19.813 3.95349L13.7864 10.0002L19.813 16.0465C19.9288 15.8122 19.9999 15.5521 19.9999 15.2734V4.72654C19.9999 4.44787 19.9288 4.18779 19.813 3.95349Z" fill="#C6DDDB"/>
</g>
<defs>
<clipPath id="clip0_17_195">
<rect x="-0.00012207" width="20" height="20" rx="8" fill="white"/>
</clipPath>
</defs>
</svg>
