<svg width="20" height="20" viewBox="0 0 20 20" fill="none" xmlns="http://www.w3.org/2000/svg">
<g clip-path="url(#clip0_17_166)">
<path d="M19.4555 14.678L16.6645 11.8869C15.6677 10.8901 13.9731 11.2889 13.5744 12.5847C13.2753 13.4819 12.2785 13.9803 11.3814 13.7809C9.38778 13.2825 6.6964 10.6908 6.19799 8.59746C5.89895 7.7003 6.49704 6.70349 7.39416 6.40448C8.69001 6.00576 9.08873 4.31119 8.09193 3.31438L5.30087 0.523324C4.50342 -0.174441 3.30725 -0.174441 2.60949 0.523324L0.715556 2.41726C-1.17838 4.41087 0.914917 9.69395 5.59991 14.3789C10.2849 19.0639 15.568 21.2569 17.5616 19.2633L19.4555 17.3694C20.1533 16.5719 20.1533 15.3757 19.4555 14.678Z" fill="#C6DDDB"/>
</g>
<defs>
<clipPath id="clip0_17_166">
<rect x="-0.00012207" width="20" height="20" rx="8" fill="white"/>
</clipPath>
</defs>
</svg>
