<svg width="20" height="20" viewBox="0 0 20 20" fill="none" xmlns="http://www.w3.org/2000/svg">
<path d="M9.99988 0C7.0921 0 4.72644 2.36566 4.72644 5.27344C4.72644 8.18121 7.0921 10.5469 9.99988 10.5469C12.9077 10.5469 15.2733 8.18121 15.2733 5.27344C15.2733 2.36566 12.9077 0 9.99988 0Z" fill="#C6DDDB"/>
<path d="M16.5611 13.992C15.1173 12.5261 13.2034 11.7188 11.1718 11.7188H8.828C6.79644 11.7188 4.88246 12.5261 3.43871 13.992C2.00203 15.4507 1.21082 17.3763 1.21082 19.4141C1.21082 19.7377 1.47316 20 1.79675 20H18.203C18.5266 20 18.7889 19.7377 18.7889 19.4141C18.7889 17.3763 17.9977 15.4507 16.5611 13.992Z" fill="#C6DDDB"/>
</svg>
